<?xml version="1.0" encoding="utf-8"?>
<!-- Generator: Adobe Illustrator 23.0.1, SVG Export Plug-In . SVG Version: 6.00 Build 0)  -->
<svg version="1.1" id="Layer_1" xmlns="http://www.w3.org/2000/svg" xmlns:xlink="http://www.w3.org/1999/xlink" x="0px" y="0px"
	 viewBox="0 0 300 300" style="enable-background:new 0 0 300 300;" xml:space="preserve">
<style type="text/css">
	.st0{fill:#FFFFFF;}
	.st1{fill:#60A731;}
	.st2{fill:#DB1431;}
</style>
<g id="Слой_2">
	<path d="M279,166.1c-3.3-7.6-8-14.1-13.8-18.7c0,0-0.1,0-0.1-0.1c-0.5-0.3-0.8-0.7-0.8-1.2c-0.1-1.2,0.8-2.7,1.7-3.6
		c3-2.9,3.8-7.5,1.8-11.1c-0.6-1.5-1.8-2.4-3-3.3c-0.8-0.6-1.5-1.2-2-1.9c0.1-0.9,0.5-1.6,1-2.5c0.2-0.4,0.5-0.8,0.6-1.2
		c2.6-4.4,2.2-10.2-0.9-14.4c-2.1-2.6-5-3.9-7.9-5.2c-3-1.4-5.8-2.6-7.5-5.2c-0.9-1.3-1.7-2.7-2.6-4.1c-2.9-4.7-6-9.6-9.9-13.7
		c-9.4-10.6-20-21.3-33.5-27.9c-17-7.7-36.5-11.8-56.4-11.8c-4.9,0-9.9,0.2-14.9,0.7c-4.6,0.7-8.9,1.5-13.6,2.3l-2,0.4
		c-26.9,6.3-50.9,22.6-65.9,44.8l-0.6,1.1c-2,3.5-4.1,7.1-7.9,8.5c-0.9,0.4-1.8,0.7-2.8,1c-4.4,1.6-9.5,3.4-10.9,8.7
		c-1.1,3.9,1.2,6.8,3.3,9.4c0.7,0.9,1.4,1.8,1.9,2.7l0.1,0.1c0.7,0.8-0.1,1.8-1.7,3.2c-0.5,0.4-1.1,0.8-1.7,1.2
		c-2.3,1.5-5.1,3.3-4.4,6.7c0.2,2.2,1,4.4,1.8,6.5c1.5,4.3,2.9,8.3,0.4,12c-7.4,10.4-14.6,21.6-13.9,34.5
		c1.6,14.6,13.1,25.2,22.9,32.9c11.4,9.4,25,17.2,44.1,25.2c2.1,0.8,4.2,1.6,6.3,2.3c5.5,1.9,11.1,4,15.9,7.4
		c8,5.5,17.4,9.2,27.2,10.7c5.2,0.9,9.8,1.4,14.2,1.4c6.1,0,11.8-1,16.6-2.8c3.2-1.2,6.3-2.6,9.3-4c4-1.8,8.2-3.6,12.3-5
		c2.5-0.8,5.2-1.1,7.8-1.4c2.1-0.3,4.3-0.5,6.4-1c22-4.6,43.8-15.4,64.8-32.1c9.9-7.8,16-15.3,19.4-23.4
		C283.5,186.6,283.1,177.5,279,166.1z"/>
</g>
<g id="Слой_1">
	<path class="st0" d="M97.8,83.2c3.9-3,9.4-2.4,13.2,0.2c7.6,5.2,12.3,14.4,11.9,23.6c0,2.9-2.1,5.4-1.5,8.3
		c0.2,0.5,0.5,1.4,0.7,1.9c-0.6,1.8-1.9-1.3-2.4-2c0.2-1.6,0.3-3.1,0.4-4.7c-2.7,0.2-6.1-0.5-6.8-3.5c0-0.8-0.1-2.5-0.1-3.3
		c-3.4,1.3-6.4,4-7,7.8c-1.1,3.8,0.4,7.5,2.6,10.5c-3,1.2-6,2.3-9,3.3c-7.1-5.8-9.8-15.3-9.5-24.2C90.5,94.5,92.4,87.3,97.8,83.2z
		 M187.1,87.4c3.8-4.8,11.1-7,16.3-3.3c10.3,7.5,14.3,24.1,5.9,34.3c-3.6,4.7-11.2,7.1-16,2.7c4.6-2.7,4.5-8.7,2.7-13.1
		c-3.9,1.3-8-1.4-8.1-5.6c-3.1,1.3-4.5,4.4-5.1,7.6C180.2,102.5,181.7,93.5,187.1,87.4z"/>
	<path class="st1" d="M105.4,52.7c25.3-8.4,53.4-8.7,78.8-0.5c21.2,6.9,40.7,20.4,52.7,39.4c0.7,1.2,1.3,2.5,1.9,3.7
		c-2.6-1.3-5.4-2.3-7.7-4.1c-2.7-2.4-4.1-5.9-6.5-8.6c-5.7-6.2-13.5-10.9-22-11.6c-9.5-1.1-18.8,1.9-27.4,5.5
		c-12.5,1.7-25.3,1-37.8-0.4c-3-0.4-6.2-0.6-8.6-2.5c-14-10.4-35.5-8.7-47.8,3.6c-2.2,2.2-3.4,5.5-6.4,6.8c-7.9,4-15.6,8.8-24.3,11
		C62.3,74.6,83,60.2,105.4,52.7z M103.1,125.5c34.6-10.1,72.3-7.6,106,4.9c10.6,3.7,20.5,9,30.6,13.8c-2.7-3.6-6.9-5.4-10.1-8.3
		c7.2,1.3,14.1,4,21.1,5.9c4.1,1.1,6.8,4.5,9.8,7.3c8,8.1,15,18.2,16,29.9c0.9,11.7-5.4,22.6-13.6,30.4
		c-12.1,11.8-27.3,19.6-42.6,26.3c-7.5,3.1-15,6.2-22.8,8.3c1.4-1.3,2.9-2.6,4.1-4.1c-4.7,1.4-8.7,4.2-13.2,6
		c-16.5,7.6-34.6,13.4-52.9,11.4c-16.9-1.8-32.2-10.5-45.3-20.9c-3.7-2.7-6.7-6.1-10.5-8.6c3.3,4.4,7,8.3,10.6,12.5
		c-6.8-2.1-13.2-5.3-19.6-8.3c-14.2-7.1-28-15.4-39.4-26.6c-5.7-6-11.3-13.6-10.5-22.4c0.7-13.1,5.3-26.7,15.7-35.1
		c13-10.6,30.2-13.7,46.3-16.2c-7.1,5.2-15.9,8.2-22.1,14.6C75.2,140.1,87.5,129,103.1,125.5 M243.1,175.1c1.6,2.1,4.4,2.4,6.6,3.7
		c-32.7,28.1-77.4,41.6-120.2,36.5c-26.3-3.1-51.9-13.8-71.5-31.7c-0.7-0.7-1.3-1.4-1.8-2.2c2.2-1,5.6-0.6,6.5-3.4
		c-2.7-0.5-5.6-0.7-8.3,0.1c-4.8,0.7-7.7,4.9-11,8c2.5-0.2,4.6-2,7.1-2.1c2.2,0.9,3.6,3.1,5.5,4.5c7.1,6,14.9,11.4,23.1,15.8
		c3.8,2.1,8.3,3.5,11.1,7c8,9.4,17.2,18,28.3,23.7c12.9,7,28.3,8.6,42.6,5.3c18.1-4.4,33.7-15.2,47.4-27.4c2.8-2.5,5.3-5.5,8.7-7.3
		c13.1-7.2,26.5-14.5,37.6-24.8c2.4,0.8,4.9,1.7,7.4,2.3c-1.2-3.6-5-5-8-6.7C250.7,174.9,246.7,173,243.1,175.1z"/>
	<path class="st2" d="M87,77.5c5.6-5.7,13.8-7.3,21.5-8c9-0.5,17.4,3.9,24.5,9c6.6,0.1,12.9,2.6,19.5,2.2c6.1,1.1,12.2-0.3,18.3-0.4
		c0.5-0.3,1.4-0.7,1.9-1c-2.7,3.1-5.7,5.9-7.9,9.4c3.4-1.7,6.8-3.4,9.6-6c6.4-5.9,15.2-9.4,24-8.5c14.1,0.1,24.9,11.2,32.2,22.2
		c1.9,0.2,3.8,0.9,5.5,1.9c6,3.2,12.3,5.7,18.5,8.6c2.7,1,4.1,3.7,5.1,6.2c1.3,4.2-2.5,7.6-3.1,11.6c-4.4-2.7-7.8-6.6-11.7-10
		c3.3,7.3,9.4,12.7,16.2,16.6c0.4,3.4,0,7.1-2.5,9.7c-4.8-1.3-9.3-3.5-14.1-4.7c-9.8-3.1-20.1-4.5-29.9-7.9c-3.5-1.3-6.8-3-10.3-4.4
		c3.9-3.2,9.1-5.9,10.4-11.2c3-7.6-0.4-15.5-2.6-22.8c-4.1-7.3-12.7-12.2-21.1-10.6c-0.1,0.6-0.2,1.7-0.3,2.3
		c-3.9,1.1-6.7,4.5-8.5,8c-2.9,5.5-3.2,12.1-1.8,18.1c0.7,3.4,2.7,6.3,3.6,9.6c-17.8-3.5-36.2-4.3-54.2-1.8
		c-2.6,0.3-5.1,1.9-7.8,1.5c-0.2-0.5-0.5-1.4-0.7-1.9c7.8-11.1,2.7-28.4-9.6-33.9l2.2-1.2c-0.9-0.8-1.7-2.5-3.1-1.8
		c-4.3,1.7-9.3,0.6-13.4,3.1c-4.3,1.6-6.9,5.5-9.2,9.3c0.6-0.2,1.7-0.5,2.3-0.6c-2.8,7.8-3.4,16.4-0.7,24.3c1.8,4.2,4.8,7.8,7.9,11
		c-17.8,3.5-35.9,6.5-53,12.7c-3.5,1.3-6.7,3.5-10.5,3.8c-1.4-4.1-2.9-8.5-2-12.9c3.1-2.6,7.6-3.1,10.9-5.4c3.7-1.8,6.4-5.1,7.5-9
		c-2.7,2.3-5.3,5.8-9,6c-2.5-1.7-4.5-4.1-6.4-6.4c-2.5-2.9-2.3-9.2,2.3-10c13.6-3.7,26-10.4,38.8-16.2c0,0.6-0.2,1.8-0.2,2.4
		c-1.9,2.1-3.7,4.2-5.5,6.3c3.1-2.5,7-4.1,9.3-7.5C82.4,85.4,83.6,80.7,87,77.5z M118.8,219.3c2.3-1.5,5.2-0.4,7.7-0.2
		c6.2,0.6,12.4,1.7,18.7,1.6c-0.1,1.5-1.1,2.7-2,3.9c2.8-1.8,5.7-4.3,9.3-3.9c6.7,0.4,13.3-1.5,20-1.5c4.5-0.4,8.5,2.5,11.5,5.5
		c0,0.4,0.1,1.4,0.2,1.8c-8.7,5.9-18.7,10.3-29.3,11.1c0.8,0.3,1.6,0.5,2.5,0.8c-4.9-0.7-9.9,0.4-14.8-0.5c-3.2-0.5-6.4-1.3-9.6-1.5
		c0.4-0.1,1.2-0.3,1.5-0.4c-7.5-1.6-14.3-5.4-20.5-9.7c-1-0.5-1.3-1.3-0.8-2.3C114.7,222.1,116.8,220.6,118.8,219.3z"/>
</g>
</svg>
